<svg width="1226" height="979" viewBox="0 0 1226 979" fill="none" xmlns="http://www.w3.org/2000/svg">
<path fill-rule="evenodd" clip-rule="evenodd" d="M729.253 41.9996C731.603 42.2151 732.414 38.9458 730.182 38.1796C723.079 35.7413 715.835 33.5424 708.458 31.5947C544.79 -11.6146 377.312 85.1703 334.385 247.77C291.457 410.369 389.336 577.211 553.004 620.42C707.165 661.119 864.706 577.616 918.361 431.899C919.198 429.626 916.113 428.282 914.897 430.376C856.862 530.294 758.69 603.875 636.72 571.675C473.053 528.465 381.288 383.513 419.775 237.734C429.497 200.91 447.219 168.083 470.918 140.279C339.894 416.868 630.977 562.435 736.135 533.797C627.285 563.44 355.685 389.145 524.102 92.7427C539.464 82.2803 556.001 73.2513 573.455 65.7855C370.875 322.827 650.274 517.291 761.368 507.366C650.099 517.307 406.226 310.393 612.666 52.0906C649.342 41.9884 688.853 38.2956 729.253 41.9996Z" fill="url(#paint0_linear_94_29)"/>
<g filter="url(#filter0_d_94_29)">
<path fill-rule="evenodd" clip-rule="evenodd" d="M853.56 110.544C850.971 126.828 837.695 137.548 823.908 134.49C822.348 134.144 820.849 133.636 819.419 132.984C515.197 375.812 175.785 372.542 334.355 217.954C212.37 384.205 563.141 301.432 803.577 110.22C803.06 106.757 803.052 103.127 803.634 99.467C806.224 83.1833 819.5 72.4623 833.286 75.5211C847.073 78.5798 856.15 94.26 853.56 110.544ZM841.079 107.775C839.784 115.916 833.146 121.277 826.253 119.748C819.36 118.218 814.821 110.378 816.116 102.236C817.411 94.0943 824.049 88.7339 830.942 90.2632C837.835 91.7926 842.374 99.6327 841.079 107.775Z" fill="url(#paint1_linear_94_29)"/>
</g>
<g filter="url(#filter1_d_94_29)">
<path fill-rule="evenodd" clip-rule="evenodd" d="M935.555 151.544C932.943 167.828 919.55 178.548 905.643 175.49C904.444 175.226 903.281 174.869 902.157 174.425C570.209 471.147 218.712 460.32 287.764 334.713C278.567 446.131 603.704 383.832 885.912 154.955C884.696 150.415 884.388 145.47 885.191 140.467C887.803 124.183 901.195 113.462 915.103 116.521C929.011 119.58 938.167 135.26 935.555 151.544ZM922.964 148.775C921.658 156.916 914.961 162.277 908.008 160.748C901.054 159.218 896.475 151.378 897.782 143.236C899.088 135.094 905.784 129.734 912.738 131.263C919.692 132.793 924.27 140.633 922.964 148.775Z" fill="url(#paint2_linear_94_29)"/>
</g>
<g filter="url(#filter2_d_94_29)">
<path fill-rule="evenodd" clip-rule="evenodd" d="M907.357 297.256C903.444 314.194 888.429 324.525 873.819 320.332C871.341 319.621 869.034 318.538 866.93 317.146C860.35 321.382 853.955 325.511 847.714 329.54C758.076 387.416 700.224 424.767 583.812 462.171C458.38 502.472 282.804 527.842 288.435 431.397C298.305 482.093 540.319 513.619 853.546 288.686C853.643 286.497 853.939 284.282 854.45 282.071C858.363 265.133 873.379 254.802 887.989 258.995C902.599 263.188 911.27 280.318 907.357 297.256ZM894.13 293.46C892.174 301.929 884.666 307.094 877.361 304.998C870.056 302.901 865.72 294.336 867.677 285.867C869.633 277.398 877.141 272.232 884.446 274.329C891.751 276.426 896.087 284.991 894.13 293.46Z" fill="url(#paint3_linear_94_29)"/>
</g>
<path d="M72.7835 753.299L99.1753 790H77.5258L53.4021 755.979H31.134V790H14.0206V689.175H51.5464C66.8041 689.175 77.732 691.787 84.3299 697.01C91.0653 702.096 94.433 710.412 94.433 721.959C94.433 738.591 87.2165 749.038 72.7835 753.299ZM52.1649 740.722C61.6495 740.722 68.1787 739.278 71.7526 736.392C75.3265 733.505 77.1134 728.625 77.1134 721.753C77.1134 715.155 75.3265 710.687 71.7526 708.351C68.1787 705.876 61.7869 704.639 52.5773 704.639H31.134V740.722H52.1649ZM180.171 758.66H119.965C120.377 764.158 122.92 768.625 127.594 772.062C132.267 775.498 137.697 777.216 143.882 777.216C153.642 777.216 160.927 774.192 165.738 768.144L175.016 778.247C166.769 786.907 155.978 791.237 142.645 791.237C131.649 791.237 122.439 787.595 115.016 780.309C107.594 773.024 103.882 763.402 103.882 751.443C103.882 739.759 107.662 730.275 115.222 722.99C122.783 715.704 131.923 712.062 142.645 712.062C153.367 712.062 162.301 715.292 169.449 721.753C176.597 728.213 180.171 736.804 180.171 747.526V758.66ZM164.088 745.876C164.088 739.691 162.095 734.811 158.109 731.237C154.26 727.663 149.243 725.876 143.058 725.876C136.872 725.876 131.442 727.732 126.769 731.443C122.233 735.155 119.965 739.966 119.965 745.876H164.088ZM185.14 751.237C185.14 739.691 188.783 730.275 196.068 722.99C203.353 715.704 212.288 712.062 222.872 712.062C233.044 712.062 241.223 716.392 247.408 725.052V682.99H263.697V790H247.408V778.454C241.635 786.976 232.975 791.237 221.429 791.237C211.394 791.237 202.803 787.526 195.656 780.103C188.645 772.543 185.14 762.921 185.14 751.237ZM224.934 776.804C231.394 776.804 236.824 774.467 241.223 769.794C245.621 765.12 247.82 759.141 247.82 751.856C247.82 744.708 245.552 738.66 241.016 733.711C236.618 728.763 231.188 726.289 224.728 726.289C218.267 726.289 212.7 728.763 208.027 733.711C203.491 738.522 201.223 744.57 201.223 751.856C201.223 759.141 203.559 765.12 208.233 769.794C212.906 774.467 218.473 776.804 224.934 776.804ZM350.304 758.66H290.098C290.51 764.158 293.053 768.625 297.726 772.062C302.4 775.498 307.829 777.216 314.015 777.216C323.775 777.216 331.06 774.192 335.871 768.144L345.149 778.247C336.902 786.907 326.111 791.237 312.778 791.237C301.781 791.237 292.572 787.595 285.149 780.309C277.726 773.024 274.015 763.402 274.015 751.443C274.015 739.759 277.795 730.275 285.355 722.99C292.915 715.704 302.056 712.062 312.778 712.062C323.5 712.062 332.434 715.292 339.582 721.753C346.73 728.213 350.304 736.804 350.304 747.526V758.66ZM334.221 745.876C334.221 739.691 332.228 734.811 328.242 731.237C324.393 727.663 319.376 725.876 313.19 725.876C307.005 725.876 301.575 727.732 296.902 731.443C292.366 735.155 290.098 739.966 290.098 745.876H334.221ZM386.613 791.237C374.242 791.237 363.108 787.388 353.211 779.691L361.046 767.113C369.843 773.849 378.503 777.216 387.025 777.216C390.599 777.216 393.417 776.392 395.479 774.742C397.678 772.955 398.778 770.756 398.778 768.144C398.778 764.296 393.692 760.859 383.52 757.835C383.245 757.698 382.902 757.56 382.489 757.423C382.214 757.285 382.008 757.216 381.871 757.216C365.926 752.955 357.953 745.739 357.953 735.567C357.953 728.419 360.634 722.715 365.995 718.454C371.493 714.192 378.709 712.062 387.644 712.062C396.441 712.062 404.826 714.674 412.799 719.897L406.819 731.856C400.634 727.732 393.83 725.67 386.407 725.67C377.747 725.67 373.417 728.419 373.417 733.918C373.417 736.254 374.242 737.973 375.891 739.072C377.678 740.034 380.565 740.997 384.551 741.959C390.599 743.608 395.685 745.258 399.809 746.907C402.558 748.144 404.964 749.45 407.025 750.825C412.249 754.399 414.861 759.828 414.861 767.113C414.861 774.261 412.18 780.103 406.819 784.639C401.596 789.038 394.861 791.237 386.613 791.237ZM533.618 762.165L544.546 773.299C534.099 785.258 521.178 791.237 505.783 791.237C490.525 791.237 477.81 786.357 467.638 776.598C457.604 766.701 452.587 754.261 452.587 739.278C452.587 724.158 457.741 711.649 468.051 701.753C478.36 691.718 491.35 686.701 507.02 686.701C522.415 686.701 535.405 692.474 545.989 704.021L535.267 715.773C530.456 711.1 525.92 707.869 521.659 706.082C517.398 704.296 512.381 703.402 506.607 703.402C496.298 703.402 487.638 706.701 480.628 713.299C473.755 719.897 470.319 728.282 470.319 738.454C470.319 748.488 473.755 757.01 480.628 764.021C487.501 771.031 495.68 774.536 505.164 774.536C510.937 774.536 515.886 773.574 520.009 771.649C524.271 769.725 528.807 766.564 533.618 762.165ZM590.424 776.804C597.435 776.804 603.208 774.467 607.744 769.794C612.418 765.12 614.754 759.072 614.754 751.649C614.754 744.227 612.418 738.179 607.744 733.505C603.208 728.832 597.435 726.495 590.424 726.495C583.414 726.495 577.641 728.832 573.105 733.505C568.569 738.179 566.301 744.227 566.301 751.649C566.301 759.072 568.569 765.052 573.105 769.588C577.641 774.399 583.414 776.804 590.424 776.804ZM590.424 791.237C578.878 791.237 569.256 787.457 561.558 779.897C553.861 772.199 550.012 762.784 550.012 751.649C550.012 740.515 553.861 731.168 561.558 723.608C569.256 715.911 578.878 712.062 590.424 712.062C601.971 712.062 611.593 715.911 619.29 723.608C626.988 731.168 630.837 740.515 630.837 751.649C630.837 762.371 626.988 771.718 619.29 779.691C611.593 787.388 601.971 791.237 590.424 791.237ZM657.194 790H641.112V713.299H657.194V727.113C659.806 722.44 663.38 718.797 667.916 716.186C672.59 713.436 677.538 712.062 682.761 712.062C691.696 712.062 698.775 714.742 703.999 720.103C709.222 725.464 711.834 733.093 711.834 742.99V790H695.545V747.938C695.545 733.78 689.703 726.701 678.019 726.701C672.109 726.701 667.16 728.625 663.174 732.474C659.188 736.186 657.194 741.478 657.194 748.351V790ZM797.616 758.66H737.41C737.822 764.158 740.365 768.625 745.039 772.062C749.712 775.498 755.142 777.216 761.328 777.216C771.087 777.216 778.372 774.192 783.183 768.144L792.462 778.247C784.214 786.907 773.424 791.237 760.09 791.237C749.094 791.237 739.884 787.595 732.462 780.309C725.039 773.024 721.328 763.402 721.328 751.443C721.328 739.759 725.108 730.275 732.668 722.99C740.228 715.704 749.369 712.062 760.09 712.062C770.812 712.062 779.747 715.292 786.895 721.753C794.042 728.213 797.616 736.804 797.616 747.526V758.66ZM781.534 745.876C781.534 739.691 779.541 734.811 775.554 731.237C771.706 727.663 766.688 725.876 760.503 725.876C754.317 725.876 748.888 727.732 744.214 731.443C739.678 735.155 737.41 739.966 737.41 745.876H781.534ZM819.699 713.299L836.194 738.454L853.307 713.299H872.482L845.472 750.825L873.513 790H853.719L835.369 764.433L817.431 790H798.462L825.884 750.825L799.905 713.299H819.699ZM896.28 790H880.198V713.299H896.28V790ZM878.136 690.619C878.136 687.869 879.098 685.533 881.023 683.608C883.084 681.546 885.559 680.515 888.445 680.515C891.194 680.515 893.531 681.546 895.456 683.608C897.517 685.533 898.548 687.869 898.548 690.619C898.548 693.505 897.517 695.979 895.456 698.041C893.531 699.966 891.194 700.928 888.445 700.928C885.559 700.928 883.153 699.897 881.229 697.835C879.167 695.911 878.136 693.505 878.136 690.619ZM947.104 776.804C954.114 776.804 959.888 774.467 964.424 769.794C969.097 765.12 971.434 759.072 971.434 751.649C971.434 744.227 969.097 738.179 964.424 733.505C959.888 728.832 954.114 726.495 947.104 726.495C940.094 726.495 934.321 728.832 929.784 733.505C925.248 738.179 922.98 744.227 922.98 751.649C922.98 759.072 925.248 765.052 929.784 769.588C934.321 774.399 940.094 776.804 947.104 776.804ZM947.104 791.237C935.558 791.237 925.936 787.457 918.238 779.897C910.54 772.199 906.692 762.784 906.692 751.649C906.692 740.515 910.54 731.168 918.238 723.608C925.936 715.911 935.558 712.062 947.104 712.062C958.65 712.062 968.272 715.911 975.97 723.608C983.668 731.168 987.516 740.515 987.516 751.649C987.516 762.371 983.668 771.718 975.97 779.691C968.272 787.388 958.65 791.237 947.104 791.237ZM1013.87 790H997.792V713.299H1013.87V727.113C1016.49 722.44 1020.06 718.797 1024.6 716.186C1029.27 713.436 1034.22 712.062 1039.44 712.062C1048.38 712.062 1055.45 714.742 1060.68 720.103C1065.9 725.464 1068.51 733.093 1068.51 742.99V790H1052.22V747.938C1052.22 733.78 1046.38 726.701 1034.7 726.701C1028.79 726.701 1023.84 728.625 1019.85 732.474C1015.87 736.186 1013.87 741.478 1013.87 748.351V790ZM1154.3 758.66H1094.09C1094.5 764.158 1097.05 768.625 1101.72 772.062C1106.39 775.498 1111.82 777.216 1118.01 777.216C1127.77 777.216 1135.05 774.192 1139.86 768.144L1149.14 778.247C1140.89 786.907 1130.1 791.237 1116.77 791.237C1105.77 791.237 1096.56 787.595 1089.14 780.309C1081.72 773.024 1078.01 763.402 1078.01 751.443C1078.01 739.759 1081.79 730.275 1089.35 722.99C1096.91 715.704 1106.05 712.062 1116.77 712.062C1127.49 712.062 1136.43 715.292 1143.57 721.753C1150.72 728.213 1154.3 736.804 1154.3 747.526V758.66ZM1138.21 745.876C1138.21 739.691 1136.22 734.811 1132.23 731.237C1128.39 727.663 1123.37 725.876 1117.18 725.876C1111 725.876 1105.57 727.732 1100.89 731.443C1096.36 735.155 1094.09 739.966 1094.09 745.876H1138.21ZM1190.61 791.237C1178.23 791.237 1167.1 787.388 1157.2 779.691L1165.04 767.113C1173.84 773.849 1182.5 777.216 1191.02 777.216C1194.59 777.216 1197.41 776.392 1199.47 774.742C1201.67 772.955 1202.77 770.756 1202.77 768.144C1202.77 764.296 1197.68 760.859 1187.51 757.835C1187.24 757.698 1186.89 757.56 1186.48 757.423C1186.21 757.285 1186 757.216 1185.86 757.216C1169.92 752.955 1161.95 745.739 1161.95 735.567C1161.95 728.419 1164.63 722.715 1169.99 718.454C1175.48 714.192 1182.7 712.062 1191.64 712.062C1200.43 712.062 1208.82 714.674 1216.79 719.897L1210.81 731.856C1204.63 727.732 1197.82 725.67 1190.4 725.67C1181.74 725.67 1177.41 728.419 1177.41 733.918C1177.41 736.254 1178.23 737.973 1179.88 739.072C1181.67 740.034 1184.56 740.997 1188.54 741.959C1194.59 743.608 1199.68 745.258 1203.8 746.907C1206.55 748.144 1208.96 749.45 1211.02 750.825C1216.24 754.399 1218.85 759.828 1218.85 767.113C1218.85 774.261 1216.17 780.103 1210.81 784.639C1205.59 789.038 1198.85 791.237 1190.61 791.237Z" fill="black"/>
<path d="M328.093 914.66H267.887C268.299 920.158 270.842 924.625 275.515 928.062C280.189 931.498 285.619 933.216 291.804 933.216C301.564 933.216 308.849 930.192 313.66 924.144L322.938 934.247C314.691 942.907 303.9 947.237 290.567 947.237C279.57 947.237 270.361 943.595 262.938 936.309C255.515 929.024 251.804 919.402 251.804 907.443C251.804 895.759 255.584 886.275 263.144 878.99C270.704 871.704 279.845 868.062 290.567 868.062C301.289 868.062 310.223 871.292 317.371 877.753C324.519 884.213 328.093 892.804 328.093 903.526V914.66ZM312.01 901.876C312.01 895.691 310.017 890.811 306.031 887.237C302.182 883.663 297.165 881.876 290.979 881.876C284.794 881.876 279.364 883.732 274.691 887.443C270.155 891.155 267.887 895.966 267.887 901.876H312.01ZM371.927 845.175H389.04V946H371.927V845.175ZM422.663 946H406.581V869.299H422.663V883.113C425.275 878.44 428.849 874.797 433.385 872.186C438.058 869.436 443.007 868.062 448.23 868.062C457.165 868.062 464.244 870.742 469.467 876.103C474.691 881.464 477.302 889.093 477.302 898.99V946H461.014V903.938C461.014 889.78 455.172 882.701 443.488 882.701C437.577 882.701 432.629 884.625 428.643 888.474C424.656 892.186 422.663 897.478 422.663 904.351V946ZM562.673 869.299V936.103C562.673 949.299 559.099 959.402 551.951 966.412C544.803 973.423 535.25 976.928 523.291 976.928C512.02 976.928 501.573 973.285 491.951 966L499.58 953.835C507.277 959.471 514.906 962.289 522.466 962.289C538.961 962.289 547.209 954.041 547.209 937.546V927.649C544.872 932.186 541.435 935.828 536.899 938.577C532.363 941.189 527.346 942.495 521.848 942.495C511.676 942.495 503.291 938.99 496.693 931.979C490.233 924.832 487.002 915.966 487.002 905.381C487.002 894.66 490.233 885.794 496.693 878.784C503.291 871.636 511.676 868.062 521.848 868.062C532.02 868.062 540.267 872.254 546.59 880.639V869.299H562.673ZM524.528 927.856C530.989 927.856 536.281 925.656 540.405 921.258C544.528 916.722 546.59 911.155 546.59 904.557C546.59 897.821 544.46 892.254 540.198 887.856C536.075 883.32 530.783 881.052 524.322 881.052C517.862 881.052 512.638 883.388 508.652 888.062C504.803 892.598 502.879 898.096 502.879 904.557C502.879 911.155 504.872 916.722 508.858 921.258C512.844 925.656 518.068 927.856 524.528 927.856ZM649.421 914.66H589.215C589.627 920.158 592.17 924.625 596.844 928.062C601.517 931.498 606.947 933.216 613.132 933.216C622.892 933.216 630.177 930.192 634.988 924.144L644.266 934.247C636.019 942.907 625.228 947.237 611.895 947.237C600.899 947.237 591.689 943.595 584.266 936.309C576.844 929.024 573.132 919.402 573.132 907.443C573.132 895.759 576.912 886.275 584.472 878.99C592.033 871.704 601.173 868.062 611.895 868.062C622.617 868.062 631.551 871.292 638.699 877.753C645.847 884.213 649.421 892.804 649.421 903.526V914.66ZM633.338 901.876C633.338 895.691 631.345 890.811 627.359 887.237C623.51 883.663 618.493 881.876 612.308 881.876C606.122 881.876 600.692 883.732 596.019 887.443C591.483 891.155 589.215 895.966 589.215 901.876H633.338ZM675.421 946H659.339V869.299H675.421V883.113C678.033 878.44 681.607 874.797 686.143 872.186C690.816 869.436 695.765 868.062 700.988 868.062C709.923 868.062 717.002 870.742 722.225 876.103C727.448 881.464 730.06 889.093 730.06 898.99V946H713.772V903.938C713.772 889.78 707.93 882.701 696.246 882.701C690.335 882.701 685.387 884.625 681.4 888.474C677.414 892.186 675.421 897.478 675.421 904.351V946ZM760.585 946H744.503V869.299H760.585V946ZM742.441 846.619C742.441 843.869 743.403 841.533 745.327 839.608C747.389 837.546 749.863 836.515 752.75 836.515C755.499 836.515 757.836 837.546 759.76 839.608C761.822 841.533 762.853 843.869 762.853 846.619C762.853 849.505 761.822 851.979 759.76 854.041C757.836 855.966 755.499 856.928 752.75 856.928C749.863 856.928 747.458 855.897 745.534 853.835C743.472 851.911 742.441 849.505 742.441 846.619ZM847.491 914.66H787.285C787.697 920.158 790.24 924.625 794.914 928.062C799.587 931.498 805.017 933.216 811.203 933.216C820.962 933.216 828.247 930.192 833.058 924.144L842.337 934.247C834.089 942.907 823.299 947.237 809.965 947.237C798.969 947.237 789.759 943.595 782.337 936.309C774.914 929.024 771.203 919.402 771.203 907.443C771.203 895.759 774.983 886.275 782.543 878.99C790.103 871.704 799.244 868.062 809.965 868.062C820.687 868.062 829.622 871.292 836.77 877.753C843.917 884.213 847.491 892.804 847.491 903.526V914.66ZM831.409 901.876C831.409 895.691 829.416 890.811 825.429 887.237C821.581 883.663 816.563 881.876 810.378 881.876C804.192 881.876 798.763 883.732 794.089 887.443C789.553 891.155 787.285 895.966 787.285 901.876H831.409ZM873.491 913.01V946H857.409V869.299H873.491V884.557C876.103 879.746 879.608 875.828 884.007 872.804C888.543 869.78 893.285 868.199 898.234 868.062L898.44 884.351H897.615C889.78 884.351 883.801 886.893 879.677 891.979C875.553 897.065 873.491 904.076 873.491 913.01ZM968.697 946H954.058V935.691C947.598 943.388 939.075 947.237 928.491 947.237C920.381 947.237 913.714 944.969 908.491 940.433C903.405 935.759 900.862 929.711 900.862 922.289C900.862 914.866 903.611 909.23 909.11 905.381C914.608 901.533 922.168 899.608 931.79 899.608H952.821V896.722C952.821 886.55 947.116 881.464 935.708 881.464C928.56 881.464 921.137 884.076 913.44 889.299L906.223 879.196C915.708 871.773 926.292 868.062 937.976 868.062C947.46 868.062 954.952 870.467 960.45 875.278C965.948 879.952 968.697 887.031 968.697 896.515V946ZM952.615 910.948H934.47C922.787 910.948 916.945 914.591 916.945 921.876C916.945 925.588 918.388 928.474 921.275 930.536C924.161 932.46 928.216 933.423 933.44 933.423C938.8 933.423 943.336 931.979 947.048 929.093C950.759 926.069 952.615 922.151 952.615 917.34V910.948Z" fill="black"/>
<defs>
<filter id="filter0_d_94_29" x="290" y="75" width="568.002" height="259.088" filterUnits="userSpaceOnUse" color-interpolation-filters="sRGB">
<feFlood flood-opacity="0" result="BackgroundImageFix"/>
<feColorMatrix in="SourceAlpha" type="matrix" values="0 0 0 0 0 0 0 0 0 0 0 0 0 0 0 0 0 0 127 0" result="hardAlpha"/>
<feOffset dy="4"/>
<feGaussianBlur stdDeviation="2"/>
<feComposite in2="hardAlpha" operator="out"/>
<feColorMatrix type="matrix" values="0 0 0 0 0 0 0 0 0 0 0 0 0 0 0 0 0 0 0.25 0"/>
<feBlend mode="normal" in2="BackgroundImageFix" result="effect1_dropShadow_94_29"/>
<feBlend mode="normal" in="SourceGraphic" in2="effect1_dropShadow_94_29" result="shape"/>
</filter>
<filter id="filter1_d_94_29" x="275" y="116" width="665" height="310.043" filterUnits="userSpaceOnUse" color-interpolation-filters="sRGB">
<feFlood flood-opacity="0" result="BackgroundImageFix"/>
<feColorMatrix in="SourceAlpha" type="matrix" values="0 0 0 0 0 0 0 0 0 0 0 0 0 0 0 0 0 0 127 0" result="hardAlpha"/>
<feOffset dy="4"/>
<feGaussianBlur stdDeviation="2"/>
<feComposite in2="hardAlpha" operator="out"/>
<feColorMatrix type="matrix" values="0 0 0 0 0 0 0 0 0 0 0 0 0 0 0 0 0 0 0.25 0"/>
<feBlend mode="normal" in2="BackgroundImageFix" result="effect1_dropShadow_94_29"/>
<feBlend mode="normal" in="SourceGraphic" in2="effect1_dropShadow_94_29" result="shape"/>
</filter>
<filter id="filter2_d_94_29" x="284.303" y="258.062" width="627.994" height="248.022" filterUnits="userSpaceOnUse" color-interpolation-filters="sRGB">
<feFlood flood-opacity="0" result="BackgroundImageFix"/>
<feColorMatrix in="SourceAlpha" type="matrix" values="0 0 0 0 0 0 0 0 0 0 0 0 0 0 0 0 0 0 127 0" result="hardAlpha"/>
<feOffset dy="4"/>
<feGaussianBlur stdDeviation="2"/>
<feComposite in2="hardAlpha" operator="out"/>
<feColorMatrix type="matrix" values="0 0 0 0 0 0 0 0 0 0 0 0 0 0 0 0 0 0 0.25 0"/>
<feBlend mode="normal" in2="BackgroundImageFix" result="effect1_dropShadow_94_29"/>
<feBlend mode="normal" in="SourceGraphic" in2="effect1_dropShadow_94_29" result="shape"/>
</filter>
<linearGradient id="paint0_linear_94_29" x1="707.802" y1="31.4215" x2="552.348" y2="620.247" gradientUnits="userSpaceOnUse">
<stop stop-color="#82B4FF"/>
<stop offset="1" stop-color="#3166DA"/>
</linearGradient>
<linearGradient id="paint1_linear_94_29" x1="709.501" y1="146" x2="454.515" y2="327.026" gradientUnits="userSpaceOnUse">
<stop stop-color="#90AD4B"/>
<stop offset="1" stop-color="#1BBBDF"/>
</linearGradient>
<linearGradient id="paint2_linear_94_29" x1="766.47" y1="201.409" x2="462.343" y2="411.987" gradientUnits="userSpaceOnUse">
<stop stop-color="#90AD4B"/>
<stop offset="1" stop-color="#1BBBDF"/>
</linearGradient>
<linearGradient id="paint3_linear_94_29" x1="748.364" y1="326.454" x2="459.062" y2="504.911" gradientUnits="userSpaceOnUse">
<stop stop-color="#90AD4B"/>
<stop offset="1" stop-color="#1BBBDF"/>
</linearGradient>
</defs>
</svg>
