<svg width="2531" height="619" viewBox="0 0 2531 619" fill="none" xmlns="http://www.w3.org/2000/svg">
<g clip-path="url(#clip0_118_140)">
<path d="M826.433 458.216H736.124C736.742 466.464 740.557 473.165 747.567 478.32C754.577 483.474 762.722 486.052 772 486.052C786.639 486.052 797.567 481.515 804.784 472.443L818.701 487.598C806.33 500.588 790.144 507.082 770.144 507.082C753.649 507.082 739.835 501.619 728.701 490.691C717.567 479.763 712 465.33 712 447.392C712 429.866 717.67 415.639 729.01 404.711C740.351 393.784 754.062 388.32 770.144 388.32C786.227 388.32 799.629 393.165 810.351 402.856C821.072 412.546 826.433 425.433 826.433 441.515V458.216ZM802.309 439.041C802.309 429.763 799.32 422.443 793.34 417.082C787.567 411.722 780.041 409.041 770.763 409.041C761.485 409.041 753.34 411.825 746.33 417.392C739.526 422.959 736.124 430.175 736.124 439.041H802.309Z" fill="black"/>
<path d="M892.184 353.99H917.854V505.227H892.184V353.99Z" fill="black"/>
<path d="M968.289 505.227H944.165V390.175H968.289V410.897C972.206 403.887 977.567 398.423 984.371 394.505C991.381 390.381 998.804 388.32 1006.64 388.32C1020.04 388.32 1030.66 392.34 1038.49 400.381C1046.33 408.423 1050.25 419.866 1050.25 434.711V505.227H1025.81V442.134C1025.81 420.897 1017.05 410.278 999.526 410.278C990.66 410.278 983.237 413.165 977.258 418.938C971.278 424.505 968.289 432.443 968.289 442.753V505.227Z" fill="black"/>
<path d="M1178.3 390.175V490.381C1178.3 510.175 1172.94 525.33 1162.22 535.845C1151.5 546.361 1137.17 551.619 1119.23 551.619C1102.32 551.619 1086.65 546.155 1072.22 535.227L1083.66 516.979C1095.21 525.433 1106.65 529.66 1117.99 529.66C1142.74 529.66 1155.11 517.289 1155.11 492.546V477.701C1151.6 484.505 1146.45 489.969 1139.64 494.093C1132.84 498.01 1125.31 499.969 1117.07 499.969C1101.81 499.969 1089.23 494.711 1079.33 484.196C1069.64 473.474 1064.8 460.175 1064.8 444.299C1064.8 428.217 1069.64 414.918 1079.33 404.402C1089.23 393.68 1101.81 388.32 1117.07 388.32C1132.32 388.32 1144.69 394.608 1154.18 407.186V390.175H1178.3ZM1121.09 478.01C1130.78 478.01 1138.72 474.711 1144.9 468.113C1151.09 461.309 1154.18 452.959 1154.18 443.062C1154.18 432.959 1150.98 424.608 1144.59 418.01C1138.41 411.206 1130.47 407.804 1120.78 407.804C1111.09 407.804 1103.25 411.309 1097.27 418.32C1091.5 425.124 1088.61 433.371 1088.61 443.062C1088.61 452.959 1091.6 461.309 1097.58 468.113C1103.56 474.711 1111.4 478.01 1121.09 478.01Z" fill="black"/>
<path d="M1308.43 458.216H1218.12C1218.73 466.464 1222.55 473.165 1229.56 478.32C1236.57 483.474 1244.71 486.052 1253.99 486.052C1268.63 486.052 1279.56 481.515 1286.78 472.443L1300.69 487.598C1288.32 500.588 1272.14 507.082 1252.14 507.082C1235.64 507.082 1221.83 501.619 1210.69 490.691C1199.56 479.763 1193.99 465.33 1193.99 447.392C1193.99 429.866 1199.66 415.639 1211 404.711C1222.34 393.784 1236.05 388.32 1252.14 388.32C1268.22 388.32 1281.62 393.165 1292.34 402.856C1303.06 412.546 1308.43 425.433 1308.43 441.515V458.216ZM1284.3 439.041C1284.3 429.763 1281.31 422.443 1275.33 417.082C1269.56 411.722 1262.03 409.041 1252.76 409.041C1243.48 409.041 1235.33 411.825 1228.32 417.392C1221.52 422.959 1218.12 430.175 1218.12 439.041H1284.3Z" fill="black"/>
<path d="M1347.43 505.227H1323.3V390.175H1347.43V410.897C1351.34 403.887 1356.7 398.423 1363.51 394.505C1370.52 390.381 1377.94 388.32 1385.78 388.32C1399.18 388.32 1409.8 392.34 1417.63 400.381C1425.47 408.423 1429.38 419.866 1429.38 434.711V505.227H1404.95V442.134C1404.95 420.897 1396.19 410.278 1378.66 410.278C1369.8 410.278 1362.37 413.165 1356.39 418.938C1350.41 424.505 1347.43 432.443 1347.43 442.753V505.227Z" fill="black"/>
<path d="M1475.17 505.227H1451.05V390.175H1475.17V505.227ZM1447.95 356.155C1447.95 352.031 1449.4 348.526 1452.28 345.639C1455.38 342.546 1459.09 341 1463.42 341C1467.54 341 1471.05 342.546 1473.93 345.639C1477.03 348.526 1478.57 352.031 1478.57 356.155C1478.57 360.485 1477.03 364.196 1473.93 367.289C1471.05 370.175 1467.54 371.619 1463.42 371.619C1459.09 371.619 1455.48 370.072 1452.59 366.979C1449.5 364.093 1447.95 360.485 1447.95 356.155Z" fill="black"/>
<path d="M1605.53 458.216H1515.22C1515.84 466.464 1519.65 473.165 1526.66 478.32C1533.67 483.474 1541.82 486.052 1551.1 486.052C1565.74 486.052 1576.66 481.515 1583.88 472.443L1597.8 487.598C1585.43 500.588 1569.24 507.082 1549.24 507.082C1532.75 507.082 1518.93 501.619 1507.8 490.691C1496.66 479.763 1491.1 465.33 1491.1 447.392C1491.1 429.866 1496.77 415.639 1508.11 404.711C1519.45 393.784 1533.16 388.32 1549.24 388.32C1565.32 388.32 1578.73 393.165 1589.45 402.856C1600.17 412.546 1605.53 425.433 1605.53 441.515V458.216ZM1581.41 439.041C1581.41 429.763 1578.42 422.443 1572.44 417.082C1566.66 411.722 1559.14 409.041 1549.86 409.041C1540.58 409.041 1532.44 411.825 1525.43 417.392C1518.62 422.959 1515.22 430.175 1515.22 439.041H1581.41Z" fill="black"/>
<path d="M1644.53 455.742V505.227H1620.41V390.175H1644.53V413.062C1648.45 405.845 1653.71 399.969 1660.3 395.433C1667.11 390.897 1674.22 388.526 1681.64 388.32L1681.95 412.753H1680.72C1668.96 412.753 1659.99 416.567 1653.81 424.196C1647.62 431.825 1644.53 442.34 1644.53 455.742Z" fill="black"/>
<path d="M1787.34 505.227H1765.38V489.763C1755.69 501.309 1742.91 507.082 1727.03 507.082C1714.87 507.082 1704.87 503.68 1697.03 496.876C1689.4 489.866 1685.59 480.794 1685.59 469.66C1685.59 458.526 1689.71 450.072 1697.96 444.299C1706.21 438.526 1717.55 435.639 1731.98 435.639H1763.53V431.309C1763.53 416.052 1754.97 408.423 1737.86 408.423C1727.13 408.423 1716 412.34 1704.45 420.175L1693.63 405.021C1707.86 393.887 1723.73 388.32 1741.26 388.32C1755.48 388.32 1766.72 391.928 1774.97 399.144C1783.22 406.155 1787.34 416.773 1787.34 431V505.227ZM1763.22 452.649H1736C1718.47 452.649 1709.71 458.113 1709.71 469.041C1709.71 474.608 1711.88 478.938 1716.21 482.031C1720.54 484.918 1726.62 486.361 1734.45 486.361C1742.49 486.361 1749.3 484.196 1754.87 479.866C1760.43 475.33 1763.22 469.454 1763.22 462.237V452.649Z" fill="black"/>
<path d="M810.969 202.175L850.557 257.227H818.082L781.897 206.196H748.495V257.227H722.825V105.99H779.113C802 105.99 818.392 109.907 828.289 117.742C838.392 125.371 843.443 137.845 843.443 155.165C843.443 180.113 832.619 195.784 810.969 202.175ZM780.041 183.309C794.268 183.309 804.062 181.144 809.423 176.814C814.783 172.485 817.464 165.165 817.464 154.856C817.464 144.959 814.783 138.258 809.423 134.753C804.062 131.041 794.474 129.186 780.66 129.186H748.495V183.309H780.041Z" fill="black"/>
<path d="M972.05 210.216H881.741C882.359 218.464 886.174 225.165 893.184 230.32C900.194 235.474 908.339 238.052 917.617 238.052C932.256 238.052 943.184 233.515 950.401 224.443L964.318 239.598C951.947 252.588 935.761 259.082 915.761 259.082C899.267 259.082 885.452 253.619 874.318 242.691C863.184 231.763 857.617 217.33 857.617 199.392C857.617 181.866 863.287 167.639 874.627 156.711C885.968 145.784 899.679 140.32 915.761 140.32C931.844 140.32 945.246 145.165 955.968 154.856C966.689 164.546 972.05 177.433 972.05 193.515V210.216ZM947.926 191.041C947.926 181.763 944.937 174.443 938.957 169.082C933.184 163.722 925.658 161.041 916.38 161.041C907.102 161.041 898.957 163.825 891.947 169.392C885.143 174.959 881.741 182.175 881.741 191.041H947.926Z" fill="black"/>
<path d="M979.504 199.082C979.504 181.763 984.968 167.639 995.896 156.711C1006.82 145.784 1020.23 140.32 1036.1 140.32C1051.36 140.32 1063.63 146.814 1072.91 159.804V96.7113H1097.34V257.227H1072.91V239.907C1064.25 252.691 1051.26 259.082 1033.94 259.082C1018.89 259.082 1006 253.515 995.277 242.381C984.762 231.041 979.504 216.608 979.504 199.082ZM1039.19 237.433C1048.89 237.433 1057.03 233.928 1063.63 226.918C1070.23 219.907 1073.52 210.938 1073.52 200.01C1073.52 189.289 1070.12 180.217 1063.32 172.794C1056.72 165.371 1048.58 161.66 1038.89 161.66C1029.19 161.66 1020.84 165.371 1013.83 172.794C1007.03 180.01 1003.63 189.082 1003.63 200.01C1003.63 210.938 1007.13 219.907 1014.14 226.918C1021.15 233.928 1029.5 237.433 1039.19 237.433Z" fill="black"/>
<path d="M1227.25 210.216H1136.94C1137.56 218.464 1141.37 225.165 1148.38 230.32C1155.39 235.474 1163.54 238.052 1172.82 238.052C1187.46 238.052 1198.38 233.515 1205.6 224.443L1219.52 239.598C1207.15 252.588 1190.96 259.082 1170.96 259.082C1154.47 259.082 1140.65 253.619 1129.52 242.691C1118.38 231.763 1112.82 217.33 1112.82 199.392C1112.82 181.866 1118.49 167.639 1129.83 156.711C1141.17 145.784 1154.88 140.32 1170.96 140.32C1187.04 140.32 1200.45 145.165 1211.17 154.856C1221.89 164.546 1227.25 177.433 1227.25 193.515V210.216ZM1203.13 191.041C1203.13 181.763 1200.14 174.443 1194.16 169.082C1188.38 163.722 1180.86 161.041 1171.58 161.041C1162.3 161.041 1154.16 163.825 1147.15 169.392C1140.34 174.959 1136.94 182.175 1136.94 191.041H1203.13Z" fill="black"/>
<path d="M1281.71 259.082C1263.16 259.082 1246.46 253.309 1231.61 241.763L1243.36 222.897C1256.56 233 1269.55 238.052 1282.33 238.052C1287.69 238.052 1291.92 236.814 1295.01 234.34C1298.31 231.66 1299.96 228.361 1299.96 224.443C1299.96 218.67 1292.33 213.515 1277.07 208.979C1276.66 208.773 1276.15 208.567 1275.53 208.361C1275.12 208.155 1274.81 208.052 1274.6 208.052C1250.68 201.66 1238.72 190.835 1238.72 175.577C1238.72 164.856 1242.74 156.299 1250.79 149.907C1259.03 143.515 1269.86 140.32 1283.26 140.32C1296.46 140.32 1309.03 144.237 1320.99 152.072L1312.02 170.01C1302.74 163.825 1292.54 160.732 1281.4 160.732C1268.41 160.732 1261.92 164.856 1261.92 173.103C1261.92 176.608 1263.16 179.186 1265.63 180.835C1268.31 182.278 1272.64 183.722 1278.62 185.165C1287.69 187.639 1295.32 190.113 1301.51 192.588C1305.63 194.443 1309.24 196.402 1312.33 198.464C1320.17 203.825 1324.08 211.969 1324.08 222.897C1324.08 233.619 1320.06 242.381 1312.02 249.186C1304.19 255.784 1294.08 259.082 1281.71 259.082Z" fill="black"/>
<path d="M1502.22 215.474L1518.61 232.175C1502.94 250.113 1483.56 259.082 1460.47 259.082C1437.58 259.082 1418.51 251.763 1403.25 237.124C1388.2 222.278 1380.67 203.619 1380.67 181.144C1380.67 158.464 1388.41 139.701 1403.87 124.856C1419.33 109.804 1438.82 102.278 1462.32 102.278C1485.42 102.278 1504.9 110.938 1520.78 128.258L1504.69 145.887C1497.48 138.876 1490.67 134.031 1484.28 131.351C1477.89 128.67 1470.36 127.33 1461.7 127.33C1446.24 127.33 1433.25 132.278 1422.74 142.175C1412.43 152.072 1407.27 164.649 1407.27 179.907C1407.27 194.959 1412.43 207.742 1422.74 218.258C1433.05 228.773 1445.31 234.031 1459.54 234.031C1468.2 234.031 1475.62 232.588 1481.81 229.701C1488.2 226.814 1495 222.072 1502.22 215.474Z" fill="black"/>
<path d="M1587.43 237.433C1597.95 237.433 1606.61 233.928 1613.41 226.918C1620.42 219.907 1623.93 210.835 1623.93 199.701C1623.93 188.567 1620.42 179.495 1613.41 172.485C1606.61 165.474 1597.95 161.969 1587.43 161.969C1576.91 161.969 1568.26 165.474 1561.45 172.485C1554.65 179.495 1551.24 188.567 1551.24 199.701C1551.24 210.835 1554.65 219.804 1561.45 226.608C1568.26 233.825 1576.91 237.433 1587.43 237.433ZM1587.43 259.082C1570.11 259.082 1555.68 253.412 1544.13 242.072C1532.58 230.526 1526.81 216.402 1526.81 199.701C1526.81 183 1532.58 168.979 1544.13 157.639C1555.68 146.093 1570.11 140.32 1587.43 140.32C1604.75 140.32 1619.18 146.093 1630.73 157.639C1642.28 168.979 1648.05 183 1648.05 199.701C1648.05 215.784 1642.28 229.804 1630.73 241.763C1619.18 253.309 1604.75 259.082 1587.43 259.082Z" fill="black"/>
<path d="M1687.59 257.227H1663.46V142.175H1687.59V162.897C1691.5 155.887 1696.86 150.423 1703.67 146.505C1710.68 142.381 1718.1 140.32 1725.94 140.32C1739.34 140.32 1749.96 144.34 1757.79 152.381C1765.63 160.423 1769.54 171.866 1769.54 186.711V257.227H1745.11V194.134C1745.11 172.897 1736.35 162.278 1718.82 162.278C1709.96 162.278 1702.53 165.165 1696.55 170.938C1690.58 176.505 1687.59 184.443 1687.59 194.753V257.227Z" fill="black"/>
<path d="M1898.22 210.216H1807.91C1808.53 218.464 1812.34 225.165 1819.35 230.32C1826.36 235.474 1834.51 238.052 1843.79 238.052C1858.42 238.052 1869.35 233.515 1876.57 224.443L1890.49 239.598C1878.12 252.588 1861.93 259.082 1841.93 259.082C1825.43 259.082 1811.62 253.619 1800.49 242.691C1789.35 231.763 1783.79 217.33 1783.79 199.392C1783.79 181.866 1789.46 167.639 1800.8 156.711C1812.14 145.784 1825.85 140.32 1841.93 140.32C1858.01 140.32 1871.41 145.165 1882.14 154.856C1892.86 164.546 1898.22 177.433 1898.22 193.515V210.216ZM1874.09 191.041C1874.09 181.763 1871.1 174.443 1865.13 169.082C1859.35 163.722 1851.83 161.041 1842.55 161.041C1833.27 161.041 1825.13 163.825 1818.11 169.392C1811.31 174.959 1807.91 182.175 1807.91 191.041H1874.09Z" fill="black"/>
<path d="M1931.34 142.175L1956.08 179.907L1981.75 142.175H2010.52L1970 198.464L2012.06 257.227H1982.37L1954.85 218.876L1927.94 257.227H1899.49L1940.62 198.464L1901.65 142.175H1931.34Z" fill="black"/>
<path d="M2046.21 257.227H2022.09V142.175H2046.21V257.227ZM2019 108.155C2019 104.031 2020.44 100.526 2023.33 97.6392C2026.42 94.5464 2030.13 93 2034.46 93C2038.59 93 2042.09 94.5464 2044.98 97.6392C2048.07 100.526 2049.62 104.031 2049.62 108.155C2049.62 112.485 2048.07 116.196 2044.98 119.289C2042.09 122.175 2038.59 123.619 2034.46 123.619C2030.13 123.619 2026.52 122.072 2023.64 118.979C2020.54 116.093 2019 112.485 2019 108.155Z" fill="black"/>
<path d="M2122.45 237.433C2132.97 237.433 2141.63 233.928 2148.43 226.918C2155.44 219.907 2158.94 210.835 2158.94 199.701C2158.94 188.567 2155.44 179.495 2148.43 172.485C2141.63 165.474 2132.97 161.969 2122.45 161.969C2111.93 161.969 2103.27 165.474 2096.47 172.485C2089.67 179.495 2086.26 188.567 2086.26 199.701C2086.26 210.835 2089.67 219.804 2096.47 226.608C2103.27 233.825 2111.93 237.433 2122.45 237.433ZM2122.45 259.082C2105.13 259.082 2090.7 253.412 2079.15 242.072C2067.6 230.526 2061.83 216.402 2061.83 199.701C2061.83 183 2067.6 168.979 2079.15 157.639C2090.7 146.093 2105.13 140.32 2122.45 140.32C2139.77 140.32 2154.2 146.093 2165.75 157.639C2177.3 168.979 2183.07 183 2183.07 199.701C2183.07 215.784 2177.3 229.804 2165.75 241.763C2154.2 253.309 2139.77 259.082 2122.45 259.082Z" fill="black"/>
<path d="M2222.6 257.227H2198.48V142.175H2222.6V162.897C2226.52 155.887 2231.88 150.423 2238.69 146.505C2245.7 142.381 2253.12 140.32 2260.96 140.32C2274.36 140.32 2284.98 144.34 2292.81 152.381C2300.65 160.423 2304.56 171.866 2304.56 186.711V257.227H2280.13V194.134C2280.13 172.897 2271.37 162.278 2253.84 162.278C2244.98 162.278 2237.55 165.165 2231.57 170.938C2225.59 176.505 2222.6 184.443 2222.6 194.753V257.227Z" fill="black"/>
<path d="M2433.24 210.216H2342.93C2343.55 218.464 2347.36 225.165 2354.37 230.32C2361.38 235.474 2369.53 238.052 2378.8 238.052C2393.44 238.052 2404.37 233.515 2411.59 224.443L2425.51 239.598C2413.13 252.588 2396.95 259.082 2376.95 259.082C2360.45 259.082 2346.64 253.619 2335.51 242.691C2324.37 231.763 2318.8 217.33 2318.8 199.392C2318.8 181.866 2324.47 167.639 2335.81 156.711C2347.16 145.784 2360.87 140.32 2376.95 140.32C2393.03 140.32 2406.43 145.165 2417.16 154.856C2427.88 164.546 2433.24 177.433 2433.24 193.515V210.216ZM2409.11 191.041C2409.11 181.763 2406.12 174.443 2400.14 169.082C2394.37 163.722 2386.85 161.041 2377.57 161.041C2368.29 161.041 2360.14 163.825 2353.13 169.392C2346.33 174.959 2342.93 182.175 2342.93 191.041H2409.11Z" fill="black"/>
<path d="M2487.7 259.082C2469.14 259.082 2452.44 253.309 2437.6 241.763L2449.35 222.897C2462.55 233 2475.54 238.052 2488.32 238.052C2493.68 238.052 2497.91 236.814 2501 234.34C2504.3 231.66 2505.95 228.361 2505.95 224.443C2505.95 218.67 2498.32 213.515 2483.06 208.979C2482.65 208.773 2482.13 208.567 2481.52 208.361C2481.1 208.155 2480.79 208.052 2480.59 208.052C2456.67 201.66 2444.71 190.835 2444.71 175.577C2444.71 164.856 2448.73 156.299 2456.77 149.907C2465.02 143.515 2475.85 140.32 2489.25 140.32C2502.44 140.32 2515.02 144.237 2526.98 152.072L2518.01 170.01C2508.73 163.825 2498.53 160.732 2487.39 160.732C2474.4 160.732 2467.91 164.856 2467.91 173.103C2467.91 176.608 2469.15 179.186 2471.62 180.835C2474.3 182.278 2478.63 183.722 2484.61 185.165C2493.68 187.639 2501.31 190.113 2507.5 192.588C2511.62 194.443 2515.23 196.402 2518.32 198.464C2526.16 203.825 2530.07 211.969 2530.07 222.897C2530.07 233.619 2526.05 242.381 2518.01 249.186C2510.18 255.784 2500.07 259.082 2487.7 259.082Z" fill="black"/>
<g filter="url(#filter0_d_118_140)">
<path d="M629.759 385.518C586.831 548.117 415.89 643.988 247.95 599.651C80.0108 555.314 -21.3315 387.558 21.5959 224.959C64.5233 62.359 235.465 -33.5116 403.404 10.8255C571.344 55.1627 672.686 222.918 629.759 385.518Z" fill="url(#paint0_linear_118_140)"/>
</g>
<g filter="url(#filter1_d_118_140)">
<path fill-rule="evenodd" clip-rule="evenodd" d="M637.491 142.375C634.754 158.622 621.743 169.163 608.43 165.917C607.283 165.638 606.171 165.265 605.098 164.806C282.17 457.043 -55.2321 441.498 12.8364 316.83C2.44691 428.114 315.556 370.186 589.769 145.12C588.665 140.564 588.438 135.615 589.279 130.624C592.015 114.376 605.026 103.836 618.339 107.081C631.653 110.327 640.227 126.128 637.491 142.375ZM625.438 139.437C624.069 147.561 617.564 152.831 610.907 151.208C604.251 149.586 599.964 141.685 601.332 133.561C602.7 125.438 609.206 120.168 615.862 121.79C622.519 123.413 626.806 131.314 625.438 139.437Z" fill="url(#paint1_linear_118_140)"/>
</g>
<g filter="url(#filter2_d_118_140)">
<path fill-rule="evenodd" clip-rule="evenodd" d="M574.044 71.4773C570.985 87.6206 559.195 97.7258 547.709 94.0478C546.719 93.7308 545.764 93.3218 544.846 92.8286C250.946 374.242 -42.8876 347.669 21.6646 225.338C8.00532 336.184 283.669 288.554 532.28 72.6578C531.505 68.0697 531.511 63.1175 532.451 58.1582C535.51 42.0148 547.3 31.9097 558.786 35.5876C570.271 39.2656 577.103 55.334 574.044 71.4773ZM563.646 68.1474C562.116 76.2191 556.221 81.2717 550.478 79.4327C544.736 77.5937 541.32 69.5595 542.849 61.4879C544.379 53.4162 550.274 48.3636 556.017 50.2026C561.759 52.0416 565.175 60.0757 563.646 68.1474Z" fill="url(#paint2_linear_118_140)"/>
</g>
<g filter="url(#filter3_d_118_140)">
<path fill-rule="evenodd" clip-rule="evenodd" d="M606.728 274.675C603.025 291.627 589.085 302.029 575.592 297.909C573.304 297.211 571.175 296.139 569.236 294.759C563.13 299.025 557.194 303.185 551.401 307.244C468.204 365.544 414.509 403.17 306.649 441.137C190.43 482.046 27.9056 508.276 33.5915 411.835C42.4701 462.466 266.165 492.783 556.998 266.374C557.098 264.185 557.383 261.97 557.867 259.757C561.57 242.805 575.51 232.403 589.003 236.522C602.495 240.642 610.431 257.724 606.728 274.675ZM594.513 270.946C592.661 279.421 585.691 284.622 578.945 282.563C572.198 280.503 568.23 271.962 570.082 263.486C571.934 255.01 578.904 249.809 585.65 251.869C592.396 253.929 596.364 262.47 594.513 270.946Z" fill="url(#paint3_linear_118_140)"/>
</g>
</g>
<defs>
<filter id="filter0_d_118_140" x="9.74365" y="0" width="635.867" height="618.476" filterUnits="userSpaceOnUse" color-interpolation-filters="sRGB">
<feFlood flood-opacity="0" result="BackgroundImageFix"/>
<feColorMatrix in="SourceAlpha" type="matrix" values="0 0 0 0 0 0 0 0 0 0 0 0 0 0 0 0 0 0 127 0" result="hardAlpha"/>
<feOffset dx="2" dy="4"/>
<feGaussianBlur stdDeviation="2"/>
<feComposite in2="hardAlpha" operator="out"/>
<feColorMatrix type="matrix" values="0 0 0 0 0 0 0 0 0 0 0 0 0 0 0 0 0 0 0.58 0"/>
<feBlend mode="normal" in2="BackgroundImageFix" result="effect1_dropShadow_118_140"/>
<feBlend mode="normal" in="SourceGraphic" in2="effect1_dropShadow_118_140" result="shape"/>
</filter>
<filter id="filter1_d_118_140" x="0" y="106.495" width="642" height="302.967" filterUnits="userSpaceOnUse" color-interpolation-filters="sRGB">
<feFlood flood-opacity="0" result="BackgroundImageFix"/>
<feColorMatrix in="SourceAlpha" type="matrix" values="0 0 0 0 0 0 0 0 0 0 0 0 0 0 0 0 0 0 127 0" result="hardAlpha"/>
<feOffset dy="4"/>
<feGaussianBlur stdDeviation="2"/>
<feComposite in2="hardAlpha" operator="out"/>
<feColorMatrix type="matrix" values="0 0 0 0 0 0 0 0 0 0 0 0 0 0 0 0 0 0 0.25 0"/>
<feBlend mode="normal" in2="BackgroundImageFix" result="effect1_dropShadow_118_140"/>
<feBlend mode="normal" in="SourceGraphic" in2="effect1_dropShadow_118_140" result="shape"/>
</filter>
<filter id="filter2_d_118_140" x="8.66309" y="34.832" width="570.111" height="286.325" filterUnits="userSpaceOnUse" color-interpolation-filters="sRGB">
<feFlood flood-opacity="0" result="BackgroundImageFix"/>
<feColorMatrix in="SourceAlpha" type="matrix" values="0 0 0 0 0 0 0 0 0 0 0 0 0 0 0 0 0 0 127 0" result="hardAlpha"/>
<feOffset dy="4"/>
<feGaussianBlur stdDeviation="2"/>
<feComposite in2="hardAlpha" operator="out"/>
<feColorMatrix type="matrix" values="0 0 0 0 0 0 0 0 0 0 0 0 0 0 0 0 0 0 0.25 0"/>
<feBlend mode="normal" in2="BackgroundImageFix" result="effect1_dropShadow_118_140"/>
<feBlend mode="normal" in="SourceGraphic" in2="effect1_dropShadow_118_140" result="shape"/>
</filter>
<filter id="filter3_d_118_140" x="29.4463" y="235.622" width="582.191" height="250.377" filterUnits="userSpaceOnUse" color-interpolation-filters="sRGB">
<feFlood flood-opacity="0" result="BackgroundImageFix"/>
<feColorMatrix in="SourceAlpha" type="matrix" values="0 0 0 0 0 0 0 0 0 0 0 0 0 0 0 0 0 0 127 0" result="hardAlpha"/>
<feOffset dy="4"/>
<feGaussianBlur stdDeviation="2"/>
<feComposite in2="hardAlpha" operator="out"/>
<feColorMatrix type="matrix" values="0 0 0 0 0 0 0 0 0 0 0 0 0 0 0 0 0 0 0.25 0"/>
<feBlend mode="normal" in2="BackgroundImageFix" result="effect1_dropShadow_118_140"/>
<feBlend mode="normal" in="SourceGraphic" in2="effect1_dropShadow_118_140" result="shape"/>
</filter>
<linearGradient id="paint0_linear_118_140" x1="404.369" y1="16.0459" x2="252.369" y2="597.546" gradientUnits="userSpaceOnUse">
<stop stop-color="#82B4FF"/>
<stop offset="0.595" stop-color="#002E91"/>
</linearGradient>
<linearGradient id="paint1_linear_118_140" x1="474.416" y1="189.965" x2="172.036" y2="385.009" gradientUnits="userSpaceOnUse">
<stop stop-color="#90AD4B"/>
<stop offset="1" stop-color="#1BBBDF"/>
</linearGradient>
<linearGradient id="paint2_linear_118_140" x1="429.753" y1="113.69" x2="139.186" y2="262.273" gradientUnits="userSpaceOnUse">
<stop stop-color="#90AD4B"/>
<stop offset="1" stop-color="#1BBBDF"/>
</linearGradient>
<linearGradient id="paint3_linear_118_140" x1="459.522" y1="304.65" x2="179.26" y2="463.707" gradientUnits="userSpaceOnUse">
<stop stop-color="#90AD4B"/>
<stop offset="1" stop-color="#1BBBDF"/>
</linearGradient>
<clipPath id="clip0_118_140">
<rect width="2531" height="619" fill="white"/>
</clipPath>
</defs>
</svg>
