<svg width="2543" height="610" viewBox="0 0 2543 610" fill="none" xmlns="http://www.w3.org/2000/svg">
<path d="M454.253 20.6982C456.603 20.9137 457.414 17.6444 455.182 16.8783C448.079 14.4399 440.835 12.241 433.458 10.2933C269.79 -32.916 102.312 63.8689 59.3846 226.468C16.4572 389.068 114.336 555.909 278.004 599.119C432.165 639.818 589.706 556.314 643.361 410.597C644.198 408.325 641.113 406.981 639.897 409.075C581.862 508.992 483.69 582.574 361.72 550.373C198.053 507.164 106.288 362.212 144.775 216.433C154.497 179.609 172.219 146.782 195.918 118.977C64.8945 395.566 355.977 541.134 461.135 512.495C352.285 542.139 80.6847 367.843 249.102 71.4413C264.464 60.9789 281.001 51.9499 298.455 44.4842C95.8748 301.526 375.274 495.99 486.368 486.064C375.099 496.005 131.226 289.092 337.666 30.7892C374.342 20.6871 413.853 16.9942 454.253 20.6982Z" fill="url(#paint0_linear_96_49)"/>
<g filter="url(#filter0_d_96_49)">
<path fill-rule="evenodd" clip-rule="evenodd" d="M578.561 89.2424C575.971 105.526 562.695 116.247 548.909 113.188C547.349 112.842 545.849 112.334 544.419 111.683C240.197 354.511 -99.2149 351.241 59.3551 196.652C-62.63 362.904 288.142 280.13 528.578 88.9181C528.06 85.4554 528.053 81.8258 528.635 78.1656C531.225 61.8819 544.5 51.1609 558.287 54.2197C572.073 57.2784 581.15 72.9586 578.561 89.2424ZM566.08 86.4732C564.785 94.6151 558.147 99.9756 551.254 98.4462C544.36 96.9168 539.822 89.0767 541.117 80.9348C542.411 72.793 549.049 67.4325 555.943 68.9618C562.836 70.4912 567.374 78.3313 566.08 86.4732Z" fill="url(#paint1_linear_96_49)"/>
<path fill-rule="evenodd" clip-rule="evenodd" d="M660.555 130.242C657.943 146.526 644.55 157.247 630.643 154.188C629.444 153.925 628.281 153.567 627.157 153.124C295.209 449.846 -56.2878 439.018 12.7642 313.411C3.56721 424.829 328.704 362.531 610.912 133.654C609.696 129.114 609.388 124.168 610.191 119.166C612.803 102.882 626.195 92.1609 640.103 95.2197C654.011 98.2784 663.167 113.959 660.555 130.242ZM647.964 127.473C646.658 135.615 639.961 140.976 633.008 139.446C626.054 137.917 621.475 130.077 622.782 121.935C624.088 113.793 630.784 108.432 637.738 109.962C644.692 111.491 649.27 119.331 647.964 127.473Z" fill="url(#paint2_linear_96_49)"/>
<path fill-rule="evenodd" clip-rule="evenodd" d="M632.357 275.955C628.444 292.893 613.429 303.224 598.819 299.031C596.341 298.319 594.034 297.236 591.93 295.845C585.35 300.08 578.955 304.209 572.714 308.239C483.075 366.114 425.224 403.466 308.812 440.869C183.38 481.171 7.8037 506.541 13.435 410.096C23.3051 460.792 265.319 492.317 578.546 267.384C578.643 265.195 578.939 262.981 579.45 260.769C583.363 243.832 598.379 233.5 612.989 237.694C627.599 241.887 636.27 259.017 632.357 275.955ZM619.13 272.158C617.174 280.627 609.666 285.793 602.361 283.696C595.056 281.6 590.72 273.035 592.677 264.566C594.633 256.097 602.141 250.931 609.446 253.028C616.751 255.124 621.087 263.689 619.13 272.158Z" fill="url(#paint3_linear_96_49)"/>
</g>
<path d="M823.175 208.948L862.763 264H830.289L794.103 212.969H760.701V264H735.031V112.763H791.32C814.206 112.763 830.598 116.68 840.495 124.515C850.598 132.144 855.649 144.619 855.649 161.938C855.649 186.887 844.825 202.557 823.175 208.948ZM792.247 190.082C806.474 190.082 816.268 187.918 821.629 183.588C826.99 179.258 829.67 171.938 829.67 161.629C829.67 151.732 826.99 145.031 821.629 141.526C816.268 137.814 806.68 135.959 792.866 135.959H760.701V190.082H792.247Z" fill="black"/>
<path d="M984.256 216.99H893.947C894.566 225.237 898.38 231.938 905.39 237.093C912.401 242.247 920.545 244.825 929.823 244.825C944.463 244.825 955.39 240.289 962.607 231.217L976.524 246.371C964.153 259.361 947.968 265.856 927.968 265.856C911.473 265.856 897.658 260.392 886.524 249.464C875.39 238.536 869.823 224.103 869.823 206.165C869.823 188.639 875.493 174.412 886.834 163.485C898.174 152.557 911.885 147.093 927.968 147.093C944.05 147.093 957.452 151.938 968.174 161.629C978.895 171.32 984.256 184.206 984.256 200.289V216.99ZM960.133 197.814C960.133 188.536 957.143 181.216 951.164 175.856C945.39 170.495 937.865 167.814 928.586 167.814C919.308 167.814 911.164 170.598 904.153 176.165C897.349 181.732 893.947 188.948 893.947 197.814H960.133Z" fill="black"/>
<path d="M991.71 205.856C991.71 188.536 997.174 174.412 1008.1 163.485C1019.03 152.557 1032.43 147.093 1048.31 147.093C1063.57 147.093 1075.83 153.588 1085.11 166.577V103.485H1109.55V264H1085.11V246.68C1076.45 259.464 1063.46 265.856 1046.14 265.856C1031.09 265.856 1018.2 260.289 1007.48 249.155C996.968 237.814 991.71 223.381 991.71 205.856ZM1051.4 244.206C1061.09 244.206 1069.24 240.701 1075.83 233.691C1082.43 226.68 1085.73 217.711 1085.73 206.784C1085.73 196.062 1082.33 186.99 1075.52 179.567C1068.93 172.144 1060.78 168.433 1051.09 168.433C1041.4 168.433 1033.05 172.144 1026.04 179.567C1019.24 186.784 1015.83 195.856 1015.83 206.784C1015.83 217.711 1019.34 226.68 1026.35 233.691C1033.36 240.701 1041.71 244.206 1051.4 244.206Z" fill="black"/>
<path d="M1239.46 216.99H1149.15C1149.76 225.237 1153.58 231.938 1160.59 237.093C1167.6 242.247 1175.74 244.825 1185.02 244.825C1199.66 244.825 1210.59 240.289 1217.81 231.217L1231.72 246.371C1219.35 259.361 1203.17 265.856 1183.17 265.856C1166.67 265.856 1152.86 260.392 1141.72 249.464C1130.59 238.536 1125.02 224.103 1125.02 206.165C1125.02 188.639 1130.69 174.412 1142.03 163.485C1153.37 152.557 1167.08 147.093 1183.17 147.093C1199.25 147.093 1212.65 151.938 1223.37 161.629C1234.09 171.32 1239.46 184.206 1239.46 200.289V216.99ZM1215.33 197.814C1215.33 188.536 1212.34 181.216 1206.36 175.856C1200.59 170.495 1193.06 167.814 1183.79 167.814C1174.51 167.814 1166.36 170.598 1159.35 176.165C1152.55 181.732 1149.15 188.948 1149.15 197.814H1215.33Z" fill="black"/>
<path d="M1293.92 265.856C1275.36 265.856 1258.66 260.082 1243.82 248.536L1255.57 229.67C1268.76 239.773 1281.75 244.825 1294.54 244.825C1299.9 244.825 1304.13 243.588 1307.22 241.113C1310.52 238.433 1312.17 235.134 1312.17 231.217C1312.17 225.443 1304.54 220.289 1289.28 215.753C1288.87 215.546 1288.35 215.34 1287.73 215.134C1287.32 214.928 1287.01 214.825 1286.81 214.825C1262.89 208.433 1250.93 197.608 1250.93 182.351C1250.93 171.629 1254.95 163.072 1262.99 156.68C1271.24 150.289 1282.06 147.093 1295.47 147.093C1308.66 147.093 1321.24 151.01 1333.2 158.845L1324.23 176.784C1314.95 170.598 1304.74 167.505 1293.61 167.505C1280.62 167.505 1274.13 171.629 1274.13 179.876C1274.13 183.381 1275.36 185.959 1277.84 187.608C1280.52 189.052 1284.85 190.495 1290.83 191.938C1299.9 194.412 1307.53 196.887 1313.71 199.361C1317.84 201.217 1321.45 203.175 1324.54 205.237C1332.37 210.598 1336.29 218.742 1336.29 229.67C1336.29 240.392 1332.27 249.155 1324.23 255.959C1316.39 262.557 1306.29 265.856 1293.92 265.856Z" fill="black"/>
<path d="M1514.43 222.247L1530.82 238.948C1515.15 256.887 1495.77 265.856 1472.67 265.856C1449.79 265.856 1430.72 258.536 1415.46 243.897C1400.41 229.052 1392.88 210.392 1392.88 187.918C1392.88 165.237 1400.61 146.474 1416.08 131.629C1431.54 116.577 1451.02 109.052 1474.53 109.052C1497.62 109.052 1517.11 117.711 1532.98 135.031L1516.9 152.66C1509.68 145.649 1502.88 140.804 1496.49 138.124C1490.1 135.443 1482.57 134.103 1473.91 134.103C1458.45 134.103 1445.46 139.052 1434.94 148.948C1424.63 158.845 1419.48 171.423 1419.48 186.68C1419.48 201.732 1424.63 214.515 1434.94 225.031C1445.25 235.546 1457.52 240.804 1471.75 240.804C1480.41 240.804 1487.83 239.361 1494.01 236.474C1500.41 233.588 1507.21 228.845 1514.43 222.247Z" fill="black"/>
<path d="M1599.64 244.206C1610.15 244.206 1618.81 240.701 1625.62 233.691C1632.63 226.68 1636.13 217.608 1636.13 206.474C1636.13 195.34 1632.63 186.268 1625.62 179.258C1618.81 172.247 1610.15 168.742 1599.64 168.742C1589.12 168.742 1580.46 172.247 1573.66 179.258C1566.85 186.268 1563.45 195.34 1563.45 206.474C1563.45 217.608 1566.85 226.577 1573.66 233.381C1580.46 240.598 1589.12 244.206 1599.64 244.206ZM1599.64 265.856C1582.32 265.856 1567.88 260.186 1556.34 248.845C1544.79 237.299 1539.02 223.175 1539.02 206.474C1539.02 189.773 1544.79 175.753 1556.34 164.412C1567.88 152.866 1582.32 147.093 1599.64 147.093C1616.96 147.093 1631.39 152.866 1642.94 164.412C1654.48 175.753 1660.26 189.773 1660.26 206.474C1660.26 222.557 1654.48 236.577 1642.94 248.536C1631.39 260.082 1616.96 265.856 1599.64 265.856Z" fill="black"/>
<path d="M1699.79 264H1675.67V148.948H1699.79V169.67C1703.71 162.66 1709.07 157.196 1715.87 153.278C1722.88 149.155 1730.31 147.093 1738.14 147.093C1751.54 147.093 1762.16 151.113 1770 159.155C1777.83 167.196 1781.75 178.639 1781.75 193.485V264H1757.32V200.907C1757.32 179.67 1748.55 169.052 1731.03 169.052C1722.16 169.052 1714.74 171.938 1708.76 177.711C1702.78 183.278 1699.79 191.217 1699.79 201.526V264Z" fill="black"/>
<path d="M1910.42 216.99H1820.11C1820.73 225.237 1824.55 231.938 1831.56 237.093C1838.57 242.247 1846.71 244.825 1855.99 244.825C1870.63 244.825 1881.56 240.289 1888.77 231.217L1902.69 246.371C1890.32 259.361 1874.14 265.856 1854.14 265.856C1837.64 265.856 1823.83 260.392 1812.69 249.464C1801.56 238.536 1795.99 224.103 1795.99 206.165C1795.99 188.639 1801.66 174.412 1813 163.485C1824.34 152.557 1838.05 147.093 1854.14 147.093C1870.22 147.093 1883.62 151.938 1894.34 161.629C1905.06 171.32 1910.42 184.206 1910.42 200.289V216.99ZM1886.3 197.814C1886.3 188.536 1883.31 181.216 1877.33 175.856C1871.56 170.495 1864.03 167.814 1854.75 167.814C1845.48 167.814 1837.33 170.598 1830.32 176.165C1823.52 181.732 1820.11 188.948 1820.11 197.814H1886.3Z" fill="black"/>
<path d="M1943.55 148.948L1968.29 186.68L1993.96 148.948H2022.72L1982.21 205.237L2024.27 264H1994.58L1967.05 225.649L1940.15 264H1911.69L1952.83 205.237L1913.86 148.948H1943.55Z" fill="black"/>
<path d="M2058.42 264H2034.3V148.948H2058.42V264ZM2031.2 114.928C2031.2 110.804 2032.65 107.299 2035.53 104.412C2038.63 101.32 2042.34 99.7732 2046.67 99.7732C2050.79 99.7732 2054.3 101.32 2057.18 104.412C2060.28 107.299 2061.82 110.804 2061.82 114.928C2061.82 119.258 2060.28 122.969 2057.18 126.062C2054.3 128.948 2050.79 130.392 2046.67 130.392C2042.34 130.392 2038.73 128.845 2035.84 125.753C2032.75 122.866 2031.2 119.258 2031.2 114.928Z" fill="black"/>
<path d="M2134.66 244.206C2145.17 244.206 2153.83 240.701 2160.64 233.691C2167.65 226.68 2171.15 217.608 2171.15 206.474C2171.15 195.34 2167.65 186.268 2160.64 179.258C2153.83 172.247 2145.17 168.742 2134.66 168.742C2124.14 168.742 2115.48 172.247 2108.68 179.258C2101.87 186.268 2098.47 195.34 2098.47 206.474C2098.47 217.608 2101.87 226.577 2108.68 233.381C2115.48 240.598 2124.14 244.206 2134.66 244.206ZM2134.66 265.856C2117.34 265.856 2102.9 260.186 2091.36 248.845C2079.81 237.299 2074.04 223.175 2074.04 206.474C2074.04 189.773 2079.81 175.753 2091.36 164.412C2102.9 152.866 2117.34 147.093 2134.66 147.093C2151.98 147.093 2166.41 152.866 2177.95 164.412C2189.5 175.753 2195.27 189.773 2195.27 206.474C2195.27 222.557 2189.5 236.577 2177.95 248.536C2166.41 260.082 2151.98 265.856 2134.66 265.856Z" fill="black"/>
<path d="M2234.81 264H2210.69V148.948H2234.81V169.67C2238.73 162.66 2244.09 157.196 2250.89 153.278C2257.9 149.155 2265.33 147.093 2273.16 147.093C2286.56 147.093 2297.18 151.113 2305.02 159.155C2312.85 167.196 2316.77 178.639 2316.77 193.485V264H2292.34V200.907C2292.34 179.67 2283.57 169.052 2266.05 169.052C2257.18 169.052 2249.76 171.938 2243.78 177.711C2237.8 183.278 2234.81 191.217 2234.81 201.526V264Z" fill="black"/>
<path d="M2445.44 216.99H2355.13C2355.75 225.237 2359.57 231.938 2366.58 237.093C2373.59 242.247 2381.73 244.825 2391.01 244.825C2405.65 244.825 2416.58 240.289 2423.79 231.217L2437.71 246.371C2425.34 259.361 2409.16 265.856 2389.16 265.856C2372.66 265.856 2358.85 260.392 2347.71 249.464C2336.58 238.536 2331.01 224.103 2331.01 206.165C2331.01 188.639 2336.68 174.412 2348.02 163.485C2359.36 152.557 2373.07 147.093 2389.16 147.093C2405.24 147.093 2418.64 151.938 2429.36 161.629C2440.08 171.32 2445.44 184.206 2445.44 200.289V216.99ZM2421.32 197.814C2421.32 188.536 2418.33 181.216 2412.35 175.856C2406.58 170.495 2399.05 167.814 2389.77 167.814C2380.5 167.814 2372.35 170.598 2365.34 176.165C2358.54 181.732 2355.13 188.948 2355.13 197.814H2421.32Z" fill="black"/>
<path d="M2499.91 265.856C2481.35 265.856 2464.65 260.082 2449.8 248.536L2461.56 229.67C2474.75 239.773 2487.74 244.825 2500.53 244.825C2505.89 244.825 2510.11 243.588 2513.21 241.113C2516.51 238.433 2518.16 235.134 2518.16 231.217C2518.16 225.443 2510.53 220.289 2495.27 215.753C2494.86 215.546 2494.34 215.34 2493.72 215.134C2493.31 214.928 2493 214.825 2492.79 214.825C2468.88 208.433 2456.92 197.608 2456.92 182.351C2456.92 171.629 2460.94 163.072 2468.98 156.68C2477.23 150.289 2488.05 147.093 2501.45 147.093C2514.65 147.093 2527.23 151.01 2539.19 158.845L2530.22 176.784C2520.94 170.598 2510.73 167.505 2499.6 167.505C2486.61 167.505 2480.11 171.629 2480.11 179.876C2480.11 183.381 2481.35 185.959 2483.83 187.608C2486.51 189.052 2490.84 190.495 2496.82 191.938C2505.89 194.412 2513.52 196.887 2519.7 199.361C2523.83 201.217 2527.43 203.175 2530.53 205.237C2538.36 210.598 2542.28 218.742 2542.28 229.67C2542.28 240.392 2538.26 249.155 2530.22 255.959C2522.38 262.557 2512.28 265.856 2499.91 265.856Z" fill="black"/>
<path d="M838.639 464.99H748.33C748.948 473.237 752.763 479.938 759.773 485.093C766.784 490.247 774.928 492.825 784.206 492.825C798.845 492.825 809.773 488.289 816.99 479.217L830.907 494.371C818.536 507.361 802.351 513.856 782.351 513.856C765.856 513.856 752.041 508.392 740.907 497.464C729.773 486.536 724.206 472.103 724.206 454.165C724.206 436.639 729.876 422.412 741.216 411.485C752.557 400.557 766.268 395.093 782.351 395.093C798.433 395.093 811.835 399.938 822.557 409.629C833.278 419.32 838.639 432.206 838.639 448.289V464.99ZM814.515 445.814C814.515 436.536 811.526 429.216 805.546 423.856C799.773 418.495 792.247 415.814 782.969 415.814C773.691 415.814 765.546 418.598 758.536 424.165C751.732 429.732 748.33 436.948 748.33 445.814H814.515Z" fill="black"/>
<path d="M904.39 360.763H930.06V512H904.39V360.763Z" fill="black"/>
<path d="M980.495 512H956.371V396.948H980.495V417.67C984.412 410.66 989.773 405.196 996.577 401.278C1003.59 397.155 1011.01 395.093 1018.85 395.093C1032.25 395.093 1042.87 399.113 1050.7 407.155C1058.54 415.196 1062.45 426.639 1062.45 441.485V512H1038.02V448.907C1038.02 427.67 1029.26 417.052 1011.73 417.052C1002.87 417.052 995.443 419.938 989.464 425.711C983.484 431.278 980.495 439.217 980.495 449.526V512Z" fill="black"/>
<path d="M1190.51 396.948V497.155C1190.51 516.948 1185.15 532.103 1174.43 542.619C1163.7 553.134 1149.37 558.392 1131.44 558.392C1114.53 558.392 1098.86 552.928 1084.43 542L1095.87 523.753C1107.42 532.206 1118.86 536.433 1130.2 536.433C1154.94 536.433 1167.31 524.062 1167.31 499.32V484.474C1163.81 491.278 1158.65 496.742 1151.85 500.866C1145.04 504.784 1137.52 506.742 1129.27 506.742C1114.01 506.742 1101.44 501.485 1091.54 490.969C1081.85 480.247 1077 466.948 1077 451.072C1077 434.99 1081.85 421.691 1091.54 411.175C1101.44 400.454 1114.01 395.093 1129.27 395.093C1144.53 395.093 1156.9 401.381 1166.39 413.959V396.948H1190.51ZM1133.29 484.784C1142.98 484.784 1150.92 481.485 1157.11 474.887C1163.29 468.082 1166.39 459.732 1166.39 449.835C1166.39 439.732 1163.19 431.381 1156.8 424.784C1150.61 417.979 1142.67 414.577 1132.98 414.577C1123.29 414.577 1115.46 418.082 1109.48 425.093C1103.7 431.897 1100.82 440.144 1100.82 449.835C1100.82 459.732 1103.81 468.082 1109.79 474.887C1115.77 481.485 1123.6 484.784 1133.29 484.784Z" fill="black"/>
<path d="M1320.63 464.99H1230.32C1230.94 473.237 1234.76 479.938 1241.77 485.093C1248.78 490.247 1256.92 492.825 1266.2 492.825C1280.84 492.825 1291.77 488.289 1298.98 479.217L1312.9 494.371C1300.53 507.361 1284.34 513.856 1264.34 513.856C1247.85 513.856 1234.03 508.392 1222.9 497.464C1211.77 486.536 1206.2 472.103 1206.2 454.165C1206.2 436.639 1211.87 422.412 1223.21 411.485C1234.55 400.557 1248.26 395.093 1264.34 395.093C1280.43 395.093 1293.83 399.938 1304.55 409.629C1315.27 419.32 1320.63 432.206 1320.63 448.289V464.99ZM1296.51 445.814C1296.51 436.536 1293.52 429.216 1287.54 423.856C1281.77 418.495 1274.24 415.814 1264.96 415.814C1255.68 415.814 1247.54 418.598 1240.53 424.165C1233.72 429.732 1230.32 436.948 1230.32 445.814H1296.51Z" fill="black"/>
<path d="M1359.63 512H1335.51V396.948H1359.63V417.67C1363.55 410.66 1368.91 405.196 1375.71 401.278C1382.72 397.155 1390.15 395.093 1397.98 395.093C1411.38 395.093 1422 399.113 1429.84 407.155C1437.67 415.196 1441.59 426.639 1441.59 441.485V512H1417.16V448.907C1417.16 427.67 1408.39 417.052 1390.87 417.052C1382 417.052 1374.58 419.938 1368.6 425.711C1362.62 431.278 1359.63 439.217 1359.63 449.526V512Z" fill="black"/>
<path d="M1487.38 512H1463.25V396.948H1487.38V512ZM1460.16 362.928C1460.16 358.804 1461.6 355.299 1464.49 352.412C1467.58 349.32 1471.3 347.773 1475.62 347.773C1479.75 347.773 1483.25 349.32 1486.14 352.412C1489.23 355.299 1490.78 358.804 1490.78 362.928C1490.78 367.258 1489.23 370.969 1486.14 374.062C1483.25 376.948 1479.75 378.392 1475.62 378.392C1471.3 378.392 1467.69 376.845 1464.8 373.753C1461.71 370.866 1460.16 367.258 1460.16 362.928Z" fill="black"/>
<path d="M1617.74 464.99H1527.43C1528.05 473.237 1531.86 479.938 1538.87 485.093C1545.88 490.247 1554.03 492.825 1563.3 492.825C1577.94 492.825 1588.87 488.289 1596.09 479.217L1610 494.371C1597.63 507.361 1581.45 513.856 1561.45 513.856C1544.95 513.856 1531.14 508.392 1520 497.464C1508.87 486.536 1503.3 472.103 1503.3 454.165C1503.3 436.639 1508.97 422.412 1520.31 411.485C1531.65 400.557 1545.37 395.093 1561.45 395.093C1577.53 395.093 1590.93 399.938 1601.65 409.629C1612.38 419.32 1617.74 432.206 1617.74 448.289V464.99ZM1593.61 445.814C1593.61 436.536 1590.62 429.216 1584.64 423.856C1578.87 418.495 1571.35 415.814 1562.07 415.814C1552.79 415.814 1544.64 418.598 1537.63 424.165C1530.83 429.732 1527.43 436.948 1527.43 445.814H1593.61Z" fill="black"/>
<path d="M1656.74 462.515V512H1632.61V396.948H1656.74V419.835C1660.65 412.619 1665.91 406.742 1672.51 402.206C1679.31 397.67 1686.43 395.299 1693.85 395.093L1694.16 419.526H1692.92C1681.17 419.526 1672.2 423.34 1666.02 430.969C1659.83 438.598 1656.74 449.113 1656.74 462.515Z" fill="black"/>
<path d="M1799.55 512H1777.59V496.536C1767.9 508.082 1755.11 513.856 1739.24 513.856C1727.07 513.856 1717.07 510.454 1709.24 503.649C1701.61 496.639 1697.79 487.567 1697.79 476.433C1697.79 465.299 1701.92 456.845 1710.16 451.072C1718.41 445.299 1729.75 442.412 1744.19 442.412H1775.73V438.082C1775.73 422.825 1767.17 415.196 1750.06 415.196C1739.34 415.196 1728.21 419.113 1716.66 426.948L1705.83 411.794C1720.06 400.66 1735.94 395.093 1753.46 395.093C1767.69 395.093 1778.93 398.701 1787.17 405.918C1795.42 412.928 1799.55 423.546 1799.55 437.773V512ZM1775.42 459.423H1748.21C1730.68 459.423 1721.92 464.887 1721.92 475.814C1721.92 481.381 1724.08 485.711 1728.41 488.804C1732.74 491.691 1738.82 493.134 1746.66 493.134C1754.7 493.134 1761.5 490.969 1767.07 486.639C1772.64 482.103 1775.42 476.227 1775.42 469.01V459.423Z" fill="black"/>
<defs>
<filter id="filter0_d_96_49" x="0" y="53.6986" width="665" height="431.084" filterUnits="userSpaceOnUse" color-interpolation-filters="sRGB">
<feFlood flood-opacity="0" result="BackgroundImageFix"/>
<feColorMatrix in="SourceAlpha" type="matrix" values="0 0 0 0 0 0 0 0 0 0 0 0 0 0 0 0 0 0 127 0" result="hardAlpha"/>
<feOffset dy="4"/>
<feGaussianBlur stdDeviation="2"/>
<feComposite in2="hardAlpha" operator="out"/>
<feColorMatrix type="matrix" values="0 0 0 0 0 0 0 0 0 0 0 0 0 0 0 0 0 0 0.25 0"/>
<feBlend mode="normal" in2="BackgroundImageFix" result="effect1_dropShadow_96_49"/>
<feBlend mode="normal" in="SourceGraphic" in2="effect1_dropShadow_96_49" result="shape"/>
</filter>
<linearGradient id="paint0_linear_96_49" x1="432.802" y1="10.1201" x2="277.348" y2="598.945" gradientUnits="userSpaceOnUse">
<stop stop-color="#82B4FF"/>
<stop offset="1" stop-color="#3166DA"/>
</linearGradient>
<linearGradient id="paint1_linear_96_49" x1="473.364" y1="305.152" x2="184.062" y2="483.61" gradientUnits="userSpaceOnUse">
<stop stop-color="#90AD4B"/>
<stop offset="1" stop-color="#1BBBDF"/>
</linearGradient>
<linearGradient id="paint2_linear_96_49" x1="473.364" y1="305.152" x2="184.062" y2="483.61" gradientUnits="userSpaceOnUse">
<stop stop-color="#90AD4B"/>
<stop offset="1" stop-color="#1BBBDF"/>
</linearGradient>
<linearGradient id="paint3_linear_96_49" x1="473.364" y1="305.152" x2="184.062" y2="483.61" gradientUnits="userSpaceOnUse">
<stop stop-color="#90AD4B"/>
<stop offset="1" stop-color="#1BBBDF"/>
</linearGradient>
</defs>
</svg>
