<svg width="686" height="1015" viewBox="0 0 686 1015" fill="none" xmlns="http://www.w3.org/2000/svg">
<g clip-path="url(#clip0_118_151)">
<g filter="url(#filter0_d_118_151)">
<path d="M646.759 385.518C603.831 548.117 432.89 643.988 264.95 599.651C97.0108 555.314 -4.33147 387.558 38.5959 224.959C81.5233 62.359 252.465 -33.5116 420.404 10.8255C588.344 55.1627 689.686 222.918 646.759 385.518Z" fill="url(#paint0_linear_118_151)"/>
</g>
<g filter="url(#filter1_d_118_151)">
<path fill-rule="evenodd" clip-rule="evenodd" d="M654.491 142.375C651.754 158.622 638.743 169.163 625.43 165.917C624.283 165.638 623.171 165.265 622.098 164.806C299.17 457.043 -38.2321 441.498 29.8364 316.83C19.4469 428.114 332.556 370.186 606.769 145.12C605.665 140.564 605.438 135.615 606.279 130.624C609.015 114.376 622.026 103.836 635.339 107.081C648.653 110.327 657.227 126.128 654.491 142.375ZM642.438 139.437C641.069 147.561 634.564 152.831 627.907 151.208C621.251 149.586 616.964 141.685 618.332 133.561C619.7 125.438 626.206 120.168 632.862 121.79C639.519 123.413 643.806 131.314 642.438 139.437Z" fill="url(#paint1_linear_118_151)"/>
</g>
<g filter="url(#filter2_d_118_151)">
<path fill-rule="evenodd" clip-rule="evenodd" d="M591.044 71.4773C587.985 87.6206 576.195 97.7258 564.709 94.0478C563.719 93.7308 562.764 93.3218 561.846 92.8286C267.946 374.242 -25.8876 347.669 38.6646 225.338C25.0053 336.184 300.669 288.554 549.28 72.6578C548.505 68.0697 548.511 63.1175 549.451 58.1582C552.51 42.0148 564.3 31.9097 575.786 35.5876C587.271 39.2656 594.103 55.334 591.044 71.4773ZM580.646 68.1474C579.116 76.2191 573.221 81.2717 567.478 79.4327C561.736 77.5937 558.32 69.5595 559.849 61.4879C561.379 53.4162 567.274 48.3636 573.017 50.2026C578.759 52.0416 582.175 60.0757 580.646 68.1474Z" fill="url(#paint2_linear_118_151)"/>
</g>
<g filter="url(#filter3_d_118_151)">
<path fill-rule="evenodd" clip-rule="evenodd" d="M623.728 274.675C620.025 291.627 606.085 302.029 592.592 297.909C590.304 297.211 588.175 296.139 586.236 294.759C580.13 299.025 574.194 303.185 568.401 307.244C485.204 365.544 431.509 403.17 323.649 441.137C207.43 482.046 44.9056 508.276 50.5915 411.835C59.4701 462.466 283.165 492.783 573.998 266.374C574.098 264.185 574.383 261.97 574.867 259.757C578.57 242.805 592.51 232.403 606.003 236.522C619.495 240.642 627.431 257.724 623.728 274.675ZM611.513 270.946C609.661 279.421 602.691 284.622 595.945 282.563C589.198 280.503 585.23 271.962 587.082 263.486C588.934 255.01 595.904 249.809 602.65 251.869C609.396 253.929 613.364 262.47 611.513 270.946Z" fill="url(#paint3_linear_118_151)"/>
</g>
<path d="M176.351 900.897L255.526 1011H190.577L118.206 908.938H51.4022V1011H0.0620117V708.526H112.639C158.413 708.526 191.196 716.361 210.99 732.031C231.196 747.289 241.299 772.237 241.299 806.876C241.299 856.773 219.65 888.113 176.351 900.897ZM114.495 863.165C142.949 863.165 162.536 858.835 173.258 850.175C183.98 841.515 189.34 826.876 189.34 806.258C189.34 786.464 183.98 773.062 173.258 766.051C162.536 758.629 143.361 754.917 115.732 754.917H51.4022V863.165H114.495Z" fill="black"/>
<path d="M538.595 927.495L571.379 960.897C540.039 996.773 501.276 1014.71 455.09 1014.71C409.317 1014.71 371.173 1000.07 340.657 970.794C310.554 941.103 295.503 903.783 295.503 858.835C295.503 813.474 310.966 775.948 341.894 746.258C372.822 716.155 411.791 701.103 458.802 701.103C504.987 701.103 543.956 718.423 575.709 753.062L543.544 788.32C529.111 774.299 515.503 764.608 502.719 759.247C489.936 753.887 474.884 751.206 457.564 751.206C426.637 751.206 400.657 761.103 379.626 780.897C359.008 800.691 348.698 825.845 348.698 856.361C348.698 886.464 359.008 912.031 379.626 933.062C400.245 954.093 424.781 964.608 453.235 964.608C470.554 964.608 485.399 961.722 497.771 955.948C510.554 950.175 524.162 940.691 538.595 927.495Z" fill="black"/>
<path d="M634.046 708.526H685.387V1011H634.046V708.526Z" fill="black"/>
</g>
<defs>
<filter id="filter0_d_118_151" x="26.7437" y="0" width="635.868" height="618.476" filterUnits="userSpaceOnUse" color-interpolation-filters="sRGB">
<feFlood flood-opacity="0" result="BackgroundImageFix"/>
<feColorMatrix in="SourceAlpha" type="matrix" values="0 0 0 0 0 0 0 0 0 0 0 0 0 0 0 0 0 0 127 0" result="hardAlpha"/>
<feOffset dx="2" dy="4"/>
<feGaussianBlur stdDeviation="2"/>
<feComposite in2="hardAlpha" operator="out"/>
<feColorMatrix type="matrix" values="0 0 0 0 0 0 0 0 0 0 0 0 0 0 0 0 0 0 0.58 0"/>
<feBlend mode="normal" in2="BackgroundImageFix" result="effect1_dropShadow_118_151"/>
<feBlend mode="normal" in="SourceGraphic" in2="effect1_dropShadow_118_151" result="shape"/>
</filter>
<filter id="filter1_d_118_151" x="17" y="106.495" width="641.999" height="302.968" filterUnits="userSpaceOnUse" color-interpolation-filters="sRGB">
<feFlood flood-opacity="0" result="BackgroundImageFix"/>
<feColorMatrix in="SourceAlpha" type="matrix" values="0 0 0 0 0 0 0 0 0 0 0 0 0 0 0 0 0 0 127 0" result="hardAlpha"/>
<feOffset dy="4"/>
<feGaussianBlur stdDeviation="2"/>
<feComposite in2="hardAlpha" operator="out"/>
<feColorMatrix type="matrix" values="0 0 0 0 0 0 0 0 0 0 0 0 0 0 0 0 0 0 0.25 0"/>
<feBlend mode="normal" in2="BackgroundImageFix" result="effect1_dropShadow_118_151"/>
<feBlend mode="normal" in="SourceGraphic" in2="effect1_dropShadow_118_151" result="shape"/>
</filter>
<filter id="filter2_d_118_151" x="25.6631" y="34.832" width="570.111" height="286.325" filterUnits="userSpaceOnUse" color-interpolation-filters="sRGB">
<feFlood flood-opacity="0" result="BackgroundImageFix"/>
<feColorMatrix in="SourceAlpha" type="matrix" values="0 0 0 0 0 0 0 0 0 0 0 0 0 0 0 0 0 0 127 0" result="hardAlpha"/>
<feOffset dy="4"/>
<feGaussianBlur stdDeviation="2"/>
<feComposite in2="hardAlpha" operator="out"/>
<feColorMatrix type="matrix" values="0 0 0 0 0 0 0 0 0 0 0 0 0 0 0 0 0 0 0.25 0"/>
<feBlend mode="normal" in2="BackgroundImageFix" result="effect1_dropShadow_118_151"/>
<feBlend mode="normal" in="SourceGraphic" in2="effect1_dropShadow_118_151" result="shape"/>
</filter>
<filter id="filter3_d_118_151" x="46.4463" y="235.622" width="582.191" height="250.377" filterUnits="userSpaceOnUse" color-interpolation-filters="sRGB">
<feFlood flood-opacity="0" result="BackgroundImageFix"/>
<feColorMatrix in="SourceAlpha" type="matrix" values="0 0 0 0 0 0 0 0 0 0 0 0 0 0 0 0 0 0 127 0" result="hardAlpha"/>
<feOffset dy="4"/>
<feGaussianBlur stdDeviation="2"/>
<feComposite in2="hardAlpha" operator="out"/>
<feColorMatrix type="matrix" values="0 0 0 0 0 0 0 0 0 0 0 0 0 0 0 0 0 0 0.25 0"/>
<feBlend mode="normal" in2="BackgroundImageFix" result="effect1_dropShadow_118_151"/>
<feBlend mode="normal" in="SourceGraphic" in2="effect1_dropShadow_118_151" result="shape"/>
</filter>
<linearGradient id="paint0_linear_118_151" x1="421.369" y1="16.0459" x2="269.369" y2="597.546" gradientUnits="userSpaceOnUse">
<stop stop-color="#82B4FF"/>
<stop offset="0.595" stop-color="#002E91"/>
</linearGradient>
<linearGradient id="paint1_linear_118_151" x1="491.416" y1="189.965" x2="189.036" y2="385.009" gradientUnits="userSpaceOnUse">
<stop stop-color="#90AD4B"/>
<stop offset="1" stop-color="#1BBBDF"/>
</linearGradient>
<linearGradient id="paint2_linear_118_151" x1="446.753" y1="113.69" x2="156.186" y2="262.273" gradientUnits="userSpaceOnUse">
<stop stop-color="#90AD4B"/>
<stop offset="1" stop-color="#1BBBDF"/>
</linearGradient>
<linearGradient id="paint3_linear_118_151" x1="476.522" y1="304.65" x2="196.26" y2="463.707" gradientUnits="userSpaceOnUse">
<stop stop-color="#90AD4B"/>
<stop offset="1" stop-color="#1BBBDF"/>
</linearGradient>
<clipPath id="clip0_118_151">
<rect width="686" height="1015" fill="white"/>
</clipPath>
</defs>
</svg>
